<svg width="1920" height="785" viewBox="0 0 1920 785" fill="none" xmlns="http://www.w3.org/2000/svg">
<rect y="0.629883" width="1920" height="784" fill="#E8F2FE"/>
<mask id="mask0_1_10" style="mask-type:alpha" maskUnits="userSpaceOnUse" x="0" y="0" width="1920" height="785">
<rect y="0.629883" width="1920" height="784" fill="#E9F2FB"/>
</mask>
<g mask="url(#mask0_1_10)">
<path d="M2238.38 386.027C2238.38 148.475 2046.41 -44.3917 1810.16 -44.3701C1685.75 -44.3701 1534.05 61.9326 1409.13 165.728C1331.53 230.552 1257.72 299.827 1188.07 373.208C1184.81 376.712 1183 381.329 1183 386.125C1183 390.922 1184.81 395.539 1188.07 399.043C1257.72 472.423 1331.53 541.698 1409.13 606.523C1534.04 710.325 1685.75 816.63 1810.16 816.63C2046.43 816.63 2238.38 623.59 2238.38 386.038L2238.38 386.027Z" fill="white"/>
<path opacity="0.4" d="M2238.38 386.027C2238.38 148.475 2046.41 -44.3917 1810.16 -44.3701C1685.75 -44.3701 1534.05 61.9326 1409.13 165.728C1331.53 230.552 1257.72 299.827 1188.07 373.208C1184.81 376.712 1183 381.329 1183 386.125C1183 390.922 1184.81 395.539 1188.07 399.043C1257.72 472.423 1331.53 541.698 1409.13 606.523C1534.04 710.325 1685.75 816.63 1810.16 816.63C2046.43 816.63 2238.38 623.59 2238.38 386.038L2238.38 386.027Z" fill="#E8F2FE"/>
</g>
</svg>
