<svg width="20" height="20" viewBox="0 0 20 20" fill="none" xmlns="http://www.w3.org/2000/svg">
<path d="M5.375 8.84999C5.075 8.84999 4.85 8.72082 4.7 8.46249C4.55 8.20415 4.55833 7.94999 4.725 7.69999L8.9 1.02499C9.05 0.791655 9.25833 0.674988 9.525 0.674988C9.79167 0.674988 10 0.791655 10.15 1.02499L14.325 7.69999C14.4917 7.94999 14.5 8.20415 14.35 8.46249C14.2 8.72082 13.975 8.84999 13.675 8.84999H5.375ZM15.15 20C13.9167 20 12.8833 19.5833 12.05 18.75C11.2167 17.9167 10.8 16.8833 10.8 15.65C10.8 14.4167 11.2167 13.3833 12.05 12.55C12.8833 11.7167 13.9167 11.3 15.15 11.3C16.3833 11.3 17.4167 11.7167 18.25 12.55C19.0833 13.3833 19.5 14.4167 19.5 15.65C19.5 16.8833 19.0833 17.9167 18.25 18.75C17.4167 19.5833 16.3833 20 15.15 20ZM1.25 19.375C1.03333 19.375 0.854167 19.3042 0.7125 19.1625C0.570833 19.0208 0.5 18.8417 0.5 18.625V12.525C0.5 12.3083 0.570833 12.1292 0.7125 11.9875C0.854167 11.8458 1.03333 11.775 1.25 11.775H7.35C7.56667 11.775 7.74583 11.8458 7.8875 11.9875C8.02917 12.1292 8.1 12.3083 8.1 12.525V18.625C8.1 18.8417 8.02917 19.0208 7.8875 19.1625C7.74583 19.3042 7.56667 19.375 7.35 19.375H1.25ZM15.15 18.5C15.95 18.5 16.625 18.225 17.175 17.675C17.725 17.125 18 16.45 18 15.65C18 14.85 17.725 14.175 17.175 13.625C16.625 13.075 15.95 12.8 15.15 12.8C14.35 12.8 13.675 13.075 13.125 13.625C12.575 14.175 12.3 14.85 12.3 15.65C12.3 16.45 12.575 17.125 13.125 17.675C13.675 18.225 14.35 18.5 15.15 18.5ZM2 17.875H6.6V13.275H2V17.875ZM6.725 7.34999H12.325L9.525 2.82499L6.725 7.34999Z" fill="#091F40"/>
</svg>
