<svg width="18" height="17" viewBox="0 0 18 17" fill="none" xmlns="http://www.w3.org/2000/svg">
<path d="M2.825 14.625C2.09167 13.875 1.52083 13.0083 1.1125 12.025C0.704167 11.0417 0.5 10.0333 0.5 9C0.5 7.78333 0.7125 6.67083 1.1375 5.6625C1.5625 4.65417 2.2 3.725 3.05 2.875C3.63333 2.29166 4.35833 1.8 5.225 1.4C6.09167 0.999998 7.1125 0.687498 8.2875 0.462498C9.4625 0.237498 10.7917 0.0958313 12.275 0.0374979C13.7583 -0.0208354 15.4083 0.00833137 17.225 0.124998C17.3583 1.925 17.4042 3.57083 17.3625 5.0625C17.3208 6.55416 17.1875 7.89166 16.9625 9.075C16.7375 10.2583 16.4208 11.2958 16.0125 12.1875C15.6042 13.0792 15.1 13.825 14.5 14.425C13.65 15.275 12.7333 15.9167 11.75 16.35C10.7667 16.7833 9.71667 17 8.6 17C7.45 17 6.39583 16.8042 5.4375 16.4125C4.47917 16.0208 3.60833 15.425 2.825 14.625ZM5.4 14.625C5.81667 14.9083 6.3 15.125 6.85 15.275C7.4 15.425 7.98333 15.5 8.6 15.5C9.48333 15.5 10.3417 15.3167 11.175 14.95C12.0083 14.5833 12.7667 14.05 13.45 13.35C13.9 12.9 14.2833 12.3125 14.6 11.5875C14.9167 10.8625 15.175 10.0042 15.375 9.0125C15.575 8.02083 15.7083 6.9 15.775 5.65C15.8417 4.4 15.8417 3.025 15.775 1.525C14.2083 1.49166 12.8042 1.5125 11.5625 1.5875C10.3208 1.6625 9.225 1.8 8.275 2C7.325 2.2 6.50833 2.45416 5.825 2.7625C5.14167 3.07083 4.58333 3.45 4.15 3.9C3.45 4.61666 2.91667 5.375 2.55 6.175C2.18333 6.975 2 7.79166 2 8.625C2 9.425 2.17083 10.2625 2.5125 11.1375C2.85417 12.0125 3.275 12.7167 3.775 13.25C4.65833 11.6167 5.71667 10.15 6.95 8.85C8.18333 7.55 9.49167 6.525 10.875 5.775C9.425 7.025 8.25 8.37916 7.35 9.8375C6.45 11.2958 5.8 12.8917 5.4 14.625Z" fill="#091F40"/>
</svg>
