<svg width="19" height="18" viewBox="0 0 19 18" fill="none" xmlns="http://www.w3.org/2000/svg">
<path d="M2 18C1.6 18 1.25 17.85 0.95 17.55C0.65 17.25 0.5 16.9 0.5 16.5V1.5C0.5 1.1 0.65 0.75 0.95 0.45C1.25 0.15 1.6 0 2 0H13.55L18.5 4.95V16.5C18.5 16.9 18.35 17.25 18.05 17.55C17.75 17.85 17.4 18 17 18H2ZM2 16.5H17V5.775H13.475C13.2583 5.775 13.0792 5.70417 12.9375 5.5625C12.7958 5.42083 12.725 5.24167 12.725 5.025V1.5H2V16.5ZM5.225 13.725H13.775C13.9917 13.725 14.1708 13.6542 14.3125 13.5125C14.4542 13.3708 14.525 13.1917 14.525 12.975C14.525 12.7583 14.4542 12.5792 14.3125 12.4375C14.1708 12.2958 13.9917 12.225 13.775 12.225H5.225C5.00833 12.225 4.82917 12.2958 4.6875 12.4375C4.54583 12.5792 4.475 12.7583 4.475 12.975C4.475 13.1917 4.54583 13.3708 4.6875 13.5125C4.82917 13.6542 5.00833 13.725 5.225 13.725ZM5.225 5.775H8.75C8.96667 5.775 9.14583 5.70417 9.2875 5.5625C9.42917 5.42083 9.5 5.24167 9.5 5.025C9.5 4.80833 9.42917 4.62917 9.2875 4.4875C9.14583 4.34583 8.96667 4.275 8.75 4.275H5.225C5.00833 4.275 4.82917 4.34583 4.6875 4.4875C4.54583 4.62917 4.475 4.80833 4.475 5.025C4.475 5.24167 4.54583 5.42083 4.6875 5.5625C4.82917 5.70417 5.00833 5.775 5.225 5.775ZM5.225 9.75H13.775C13.9917 9.75 14.1708 9.67917 14.3125 9.5375C14.4542 9.39583 14.525 9.21667 14.525 9C14.525 8.78333 14.4542 8.60417 14.3125 8.4625C14.1708 8.32083 13.9917 8.25 13.775 8.25H5.225C5.00833 8.25 4.82917 8.32083 4.6875 8.4625C4.54583 8.60417 4.475 8.78333 4.475 9C4.475 9.21667 4.54583 9.39583 4.6875 9.5375C4.82917 9.67917 5.00833 9.75 5.225 9.75ZM2 1.5V5.775V1.5V16.5V1.5Z" fill="#091F40"/>
</svg>
