<svg width="144" height="172" viewBox="0 0 144 172" fill="none" xmlns="http://www.w3.org/2000/svg">
<path d="M71.9828 -5.5481C32.2528 -5.5481 -0.0036171 26.6472 3.04227e-07 66.2706C3.04227e-07 87.1354 17.7788 112.577 35.1384 133.528C45.9801 146.542 57.5661 158.92 69.8388 170.602C70.4249 171.148 71.1971 171.452 71.9993 171.452C72.8014 171.452 73.5736 171.148 74.1598 170.602C86.4323 158.92 98.0184 146.542 108.86 133.528C126.221 112.579 144 87.1347 144 66.2706C144 26.6443 111.715 -5.5481 71.9846 -5.5481H71.9828ZM71.9828 0.765618C80.6098 0.759595 89.1533 2.44974 97.1248 5.7394C105.096 9.02905 112.339 13.8537 118.44 19.9374C124.54 26.0211 129.379 33.2445 132.678 41.1946C135.977 49.1446 137.673 57.6654 137.668 66.2695C137.668 83.3237 121.035 108.907 103.975 129.493C94.0263 141.535 83.3421 152.953 71.9832 163.682C60.6386 152.948 49.9647 141.53 40.0216 129.493C22.9633 108.908 6.33046 83.3248 6.33046 66.2706C6.32148 57.6681 8.01328 49.1482 11.3091 41.1985C14.6049 33.2487 19.44 26.0252 25.5378 19.941C31.6356 13.8569 38.8764 9.03162 46.8459 5.74129C54.8153 2.45096 63.3571 0.760159 71.9825 0.765618H71.9828ZM72.1 39.9713C71.3866 39.9514 70.6874 40.1729 70.1162 40.5997L34.9525 66.4643C34.6082 66.7067 34.316 67.0151 34.0928 67.3716C33.8696 67.728 33.7201 68.1253 33.6528 68.5402C33.5856 68.955 33.6021 69.3791 33.7013 69.7875C33.8005 70.1959 33.9805 70.5805 34.2306 70.9187C34.4808 71.2568 34.7961 71.5418 35.1581 71.7568C35.5201 71.9719 35.9216 72.1127 36.3388 72.171C36.7561 72.2293 37.1809 72.204 37.5882 72.0965C37.9955 71.989 38.3772 71.8014 38.711 71.5449L43.9718 67.6737V99.0196C43.9685 99.8569 44.2988 100.661 44.89 101.255C45.4812 101.85 46.2849 102.186 47.1243 102.189H96.8709C97.2866 102.187 97.6979 102.104 98.0813 101.944C98.4647 101.784 98.8127 101.55 99.1054 101.256C99.3981 100.961 99.6299 100.612 99.7874 100.229C99.945 99.845 100.025 99.4342 100.024 99.0196V67.6809L105.279 71.5467C105.613 71.7932 105.993 71.9716 106.397 72.0716C106.801 72.1716 107.22 72.1914 107.631 72.1297C108.043 72.0681 108.438 71.9262 108.794 71.7122C109.151 71.4983 109.461 71.2164 109.709 70.8827C109.956 70.549 110.135 70.17 110.235 69.7673C110.335 69.3647 110.355 68.9463 110.293 68.536C110.231 68.1257 110.089 67.7316 109.875 67.3761C109.66 67.0207 109.377 66.7108 109.043 66.4643L73.8791 40.5994C73.3637 40.2137 72.7424 39.9944 72.0986 39.9709L72.1 39.9713ZM71.9828 47.056L93.6873 63.0192V95.8758H82.4046V78.9835C82.403 78.1496 82.0706 77.3501 81.4799 76.7598C80.8891 76.1696 80.0882 75.8366 79.252 75.8335H64.744C63.9079 75.8367 63.107 76.1697 62.5163 76.7599C61.9255 77.3502 61.5931 78.1496 61.5914 78.9835V95.8754H50.3026V63.0188L71.9828 47.056ZM67.9215 82.1519H76.0763V95.8772H67.9215V82.1519Z" fill="#E7E8E8"/>
</svg>
