<svg width="56" height="57" viewBox="0 0 56 57" fill="none" xmlns="http://www.w3.org/2000/svg">
<path d="M8.64767 41.414H24.4528V48.5518H4.56891M4.56891 48.5518L12.7264 34.786L15.7855 36.8254L14.256 26.1187L4.05907 29.1777L7.11813 31.2171L1 41.414L4.56891 48.5518Z" stroke="#091F40" stroke-width="2" stroke-linejoin="round"/>
<path d="M26.8101 10.3082L18.9076 23.9959L12.726 20.4269L22.668 3.20695M22.668 3.20695L30.5108 17.1545L27.2151 18.784L37.2521 22.8128L39.7014 12.4525L36.4057 14.082L30.634 3.68509L22.668 3.20695Z" stroke="#091F40" stroke-width="2" stroke-linejoin="round"/>
<path d="M44.072 41.846L36.1694 28.1583L42.3509 24.5894L52.2929 41.8094M52.2929 41.8094L36.2926 41.6276L36.5292 37.9587L28.0217 44.6367L35.7694 51.9379L36.006 48.269L47.8958 48.469L52.2929 41.8094Z" stroke="#091F40" stroke-width="2" stroke-linejoin="round"/>
</svg>
