<svg width="59" height="56" viewBox="0 0 59 56" fill="none" xmlns="http://www.w3.org/2000/svg">
<path d="M51.3983 26.7412C52.8625 20.5593 53.0577 7.41468 42.1255 4.29121C40.6614 3.96584 38.2211 3.55628 35.2929 5.26729C33.1344 6.52856 29.4364 9.8224 27.9722 11.1239C26.1828 9.49704 23.5799 6.18449 20.6517 5.26729C16.7473 4.04432 15.7712 4.29121 12.8429 5.26729C9.91466 6.24338 0.6419 12.1 4.54624 26.2532M13.819 38.9423L27.9722 51.1434C32.0393 46.751 42.0279 37.6734 49.4461 36.5021" stroke="#091F40" stroke-width="1.5" stroke-linecap="round"/>
<path d="M32.3657 46.7509C33.0164 44.636 34.1227 39.1374 33.3418 34.0618" stroke="#091F40" stroke-width="1.5" stroke-linecap="round" stroke-linejoin="round"/>
<path d="M41.1186 35.0713C43.2143 31.463 52.5802 32.9123 57.0012 34.088C54.9175 37.8888 49.458 45.2226 44.2897 44.1512C37.8294 42.8119 38.4991 39.5817 41.1186 35.0713Z" stroke="#091F40" stroke-width="1.5" stroke-linecap="round"/>
<path d="M28.9504 36.0132C26.6369 32.8774 30.7012 25.2119 33.3504 21.8602C35.8334 25.0572 39.6771 34.0612 37.2529 36.4894C33.8302 39.9177 31.2637 39.1489 28.9504 36.0132Z" stroke="#091F40" stroke-width="1.5" stroke-linecap="round"/>
<path d="M7.99956 21.4999V27.0998H3.09996C2.39997 27.0998 1 27.5198 1 29.1997C1 30.8797 2.39997 31.2997 3.09996 31.2997H7.99956V36.6584C7.99986 38.0583 8.20955 39.6995 10.4495 39.6995C12.6895 39.6995 12.8995 37.5917 12.8995 36.6584V31.2997H17.7997C18.5 31.2997 20.5996 31.4397 20.5996 29.1997C20.5996 26.9598 18.4997 27.0998 17.7997 27.0998H12.8995V21.4999C12.8998 20.0999 12.1998 18.7 10.4495 18.7C8.76954 18.7 7.99956 20.5666 7.99956 21.4999Z" stroke="#091F40" stroke-width="1.5"/>
</svg>
