<svg width="58" height="54" viewBox="0 0 58 54" fill="none" xmlns="http://www.w3.org/2000/svg">
<path d="M27.9172 10.221C31.2819 5.17398 40.7029 -2.90071 51.4699 5.17447C62.2368 13.2497 54.8345 24.2407 49.7875 28.7268L27.9172 52.2794" stroke="#091F40" stroke-width="2" stroke-linecap="round" stroke-linejoin="round"/>
<path d="M28.7493 9.66624C29.0556 10.1258 28.9315 10.7466 28.4719 11.053C28.0124 11.3593 27.3915 11.2352 27.0852 10.7756L28.7493 9.66624ZM8.21229 28.7267L8.87664 27.9793C8.9134 28.012 8.9477 28.0473 8.97926 28.085L8.21229 28.7267ZM27.0852 10.7756C25.4294 8.29199 22.9025 5.20667 19.583 3.68601C17.9436 2.93505 16.1117 2.56578 14.0731 2.83771C12.029 3.11036 9.71418 4.03625 7.12996 5.97442L5.92996 4.37442C8.72919 2.275 11.3589 1.18203 13.8086 0.855267C16.2638 0.527778 18.4749 0.978528 20.4159 1.86772C24.2571 3.62737 27.0404 7.10289 28.7493 9.66624L27.0852 10.7756ZM7.12996 5.97442C4.57394 7.89144 3.15708 9.93274 2.49 11.945C1.82158 13.9613 1.87895 16.0304 2.40802 18.0421C3.47602 22.1031 6.43909 25.8126 8.87664 27.9793L7.54793 29.4741C4.9385 27.1547 1.67694 23.1257 0.473795 18.5508C-0.132702 16.2447 -0.22254 13.7715 0.591595 11.3157C1.40707 8.85577 3.10252 6.495 5.92996 4.37442L7.12996 5.97442ZM8.97926 28.085L28.6842 51.6375L27.1503 52.9209L7.44531 29.3684L8.97926 28.085Z" fill="#091F40"/>
<path d="M7.88653 37.5412H4.37744M9.99198 41.0503L6.48289 43.1557M13.5011 43.1557L11.3956 47.3666M48.5919 37.5412H52.101M46.4865 41.0503L49.9956 43.1557M42.9774 43.1557L45.0828 47.3666M45.7847 7.36304C49.5277 8.53273 56.5926 13.1179 54.9083 22.1012" stroke="#091F40" stroke-width="2"/>
<path d="M19.8171 3.1521C17.2437 4.78967 12.3778 8.907 13.5007 12.2757C14.9043 16.4866 20.5192 17.8903 21.2211 15.083C21.7825 12.8372 21.455 9.00058 21.2211 7.363" stroke="#091F40" stroke-width="2"/>
<path d="M36.9713 3.1521C39.5446 4.78967 44.4105 8.907 43.2876 12.2757C41.884 16.4866 36.2691 17.8903 35.5673 15.083C35.0058 12.8372 35.3333 9.00058 35.5673 7.363" stroke="#091F40" stroke-width="2"/>
<path d="M18.4138 16.4868C20.0514 18.1244 23.3265 21.8206 23.3265 23.505C23.3265 25.6104 26.1338 27.0141 28.2393 27.0141C30.3447 27.0141 33.152 26.3123 33.8538 23.505C34.5556 20.6977 36.6611 16.4868 38.0647 16.4868" stroke="#091F40" stroke-width="2"/>
<rect x="27.3357" y="19.092" width="1.80727" height="7.42181" fill="#091F40" stroke="#091F40"/>
<rect x="27.3357" y="40.1467" width="1.80727" height="1.80727" fill="#091F40" stroke="#091F40"/>
<rect x="24.5283" y="13.4775" width="1.80727" height="1.80727" fill="#091F40" stroke="#091F40"/>
<rect x="24.5283" y="35.9358" width="1.80727" height="1.80727" fill="#091F40" stroke="#091F40"/>
<path d="M18.4138 41.7521V27.7158V25.6104L19.8175 26.3122C20.9871 27.2479 23.3265 29.4002 23.3265 30.5231H33.152C33.8538 29.3534 35.5382 26.8736 36.6611 26.3122L38.0647 25.6104V41.0503M22.6247 45.9631C25.432 47.086 28.2393 44.5594 28.2393 42.454C28.2393 44.0915 31.608 47.086 33.8538 45.9631" stroke="#091F40" stroke-width="2"/>
<rect x="30.1428" y="13.4775" width="1.80727" height="1.80727" fill="#091F40" stroke="#091F40"/>
<rect x="30.1428" y="35.9358" width="1.80727" height="1.80727" fill="#091F40" stroke="#091F40"/>
</svg>
