<svg width="20" height="20" viewBox="0 0 20 20" fill="none" xmlns="http://www.w3.org/2000/svg">
<path d="M20 5.25468C20 5.25004 20 5.24557 20 5.24093C20 5.2363 20 5.23438 20 5.23103C20 5.22176 19.998 5.21313 19.9972 5.20418C19.9968 5.19433 19.9958 5.18451 19.9942 5.17477C19.9902 5.15566 19.9842 5.13701 19.9763 5.11916C19.9753 5.11693 19.9752 5.11437 19.9741 5.11213L17.6583 0.161082C17.6359 0.112958 17.6001 0.0722439 17.5553 0.0437132C17.5105 0.0151826 17.4585 1.84695e-05 17.4054 -8.68668e-07H2.59586C2.54268 -4.23429e-05 2.4906 0.0150932 2.44574 0.0436274C2.40087 0.0721616 2.36508 0.112909 2.34257 0.161082L0.0258883 5.11213C0.0247696 5.11437 0.0246098 5.11693 0.023651 5.11916C0.0157309 5.13701 0.00973111 5.15565 0.00575295 5.17477C0.00418026 5.18451 0.00316651 5.19433 0.00271667 5.20418C0.00191765 5.21313 0 5.22176 0 5.23103C0 5.23438 0 5.23758 0 5.24093C0 5.24429 0 5.25004 0.00079902 5.25468C-0.00255995 5.80409 0.191847 6.33637 0.548505 6.75429C0.905164 7.17221 1.40027 7.44788 1.94338 7.53093V17.05H0.560273C0.486103 17.05 0.414971 17.0794 0.362526 17.1319C0.31008 17.1843 0.280616 17.2555 0.280616 17.3296V19.2989C0.280595 19.3356 0.287814 19.372 0.301861 19.4059C0.315907 19.4399 0.336506 19.4707 0.362479 19.4967C0.388452 19.5227 0.419289 19.5433 0.453228 19.5573C0.487167 19.5714 0.523542 19.5786 0.560273 19.5786H19.441C19.4777 19.5786 19.5141 19.5714 19.548 19.5573C19.5819 19.5433 19.6128 19.5227 19.6388 19.4967C19.6647 19.4707 19.6853 19.4399 19.6994 19.4059C19.7134 19.372 19.7206 19.3356 19.7206 19.2989V17.3296C19.7206 17.2555 19.6912 17.1843 19.6387 17.1319C19.5863 17.0794 19.5151 17.05 19.441 17.05H18.0579V7.53093C18.6009 7.44777 19.0959 7.17206 19.4524 6.75415C19.809 6.33624 20.0033 5.80402 20 5.25468V5.25468ZM17.7787 6.99207C17.1524 6.99207 16.1367 6.35461 16.1367 5.51068H19.4213C19.3697 5.91313 19.1756 6.28378 18.8743 6.55552C18.573 6.82725 18.1843 6.98212 17.7787 6.99207ZM8.64892 0.559313H11.3523L11.4909 2.63053L11.6459 4.95105H8.35536L8.51037 2.63053L8.64892 0.559313ZM7.75561 5.51068C7.70381 5.91325 7.50958 6.28397 7.2081 6.55573C6.90661 6.82749 6.5178 6.98234 6.11203 6.99223C5.70626 6.98234 5.31744 6.82749 5.01595 6.55573C4.71447 6.28397 4.52025 5.91325 4.46844 5.51068H7.75561ZM11.6441 5.51068C11.6018 5.91712 11.4105 6.29348 11.1069 6.56708C10.8034 6.84067 10.4093 6.99208 10.0006 6.99208C9.59198 6.99208 9.19784 6.84067 8.89431 6.56708C8.59078 6.29348 8.3994 5.91712 8.35711 5.51068H11.6441ZM15.5328 5.51068C15.4907 5.91728 15.2994 6.29383 14.9958 6.56759C14.6922 6.84134 14.298 6.99285 13.8892 6.99285C13.4804 6.99285 13.0862 6.84134 12.7826 6.56759C12.4791 6.29383 12.2877 5.91728 12.2456 5.51068H15.5328ZM17.2269 0.559313L19.2818 4.95105H16.0482L14.8739 0.559313H17.2269ZM14.2943 0.559313L15.469 4.95105H12.2065L12.0681 2.87983L11.9129 0.559313H14.2943ZM7.93315 2.87983L7.79476 4.95105H4.53204L5.70628 0.559313H8.08832L7.93315 2.87983ZM2.77372 0.559313H5.12731L3.95307 4.95105H0.719118L2.77372 0.559313ZM0.580408 5.51068H3.86502C3.86502 6.55197 2.92218 6.99207 2.22303 6.99207C1.81741 6.98212 1.42875 6.82725 1.12743 6.55552C0.826119 6.28378 0.632065 5.91313 0.580408 5.51068V5.51068ZM9.13504 17.05H4.44751V9.04107H9.13504V17.05ZM19.1605 19.0192H0.83993V17.6093H19.1605V19.0192ZM9.69435 17.05V8.76142C9.69431 8.68726 9.66483 8.61615 9.6124 8.56372C9.55996 8.51128 9.48885 8.4818 9.4147 8.48176H4.16785C4.09368 8.48176 4.02255 8.51122 3.9701 8.56367C3.91766 8.61611 3.88819 8.68725 3.88819 8.76142V17.05H2.50269V7.533C3.37378 7.533 4.16769 6.66527 4.16769 6.35461C4.34923 6.71454 4.62712 7.01702 4.9704 7.22835C5.31369 7.43969 5.7089 7.55159 6.11203 7.55159C6.51515 7.55159 6.91036 7.43969 7.25365 7.22835C7.59693 7.01702 7.87482 6.71454 8.05636 6.35461C8.23788 6.71455 8.51575 7.01703 8.85902 7.22838C9.2023 7.43972 9.5975 7.55162 10.0006 7.55162C10.4037 7.55162 10.7989 7.43972 11.1422 7.22838C11.4855 7.01703 11.7634 6.71455 11.9449 6.35461C12.1264 6.71454 12.4043 7.01702 12.7476 7.22835C13.0909 7.43969 13.4861 7.55159 13.8892 7.55159C14.2923 7.55159 14.6875 7.43969 15.0308 7.22835C15.3741 7.01702 15.652 6.71454 15.8335 6.35461C15.8335 6.78512 16.8723 7.533 17.4985 7.533V17.05H9.69435Z" fill="white"/>
<path d="M16.1265 8.48179H11.3324C11.2582 8.48179 11.1871 8.51125 11.1346 8.5637C11.0822 8.61614 11.0527 8.68728 11.0527 8.76144V12.5415C11.0527 12.5782 11.0599 12.6146 11.0739 12.6485C11.088 12.6824 11.1086 12.7133 11.1346 12.7392C11.1605 12.7652 11.1914 12.7858 11.2253 12.7999C11.2592 12.8139 11.2956 12.8211 11.3324 12.8211H16.1265C16.2006 12.8211 16.2718 12.7916 16.3242 12.7392C16.3767 12.6868 16.4061 12.6156 16.4061 12.5415V8.76144C16.4061 8.68729 16.3766 8.61618 16.3242 8.56374C16.2717 8.51131 16.2006 8.48183 16.1265 8.48179V8.48179ZM15.8468 12.2618H11.612V9.0411H15.8468V12.2618Z" fill="white"/>
</svg>
