<svg width="57" height="57" viewBox="0 0 57 57" fill="none" xmlns="http://www.w3.org/2000/svg">
<path d="M9 31.2485H10.5" stroke="#091F40" stroke-width="2"/>
<path d="M28 47.2485H29.5" stroke="#091F40" stroke-width="2"/>
<path d="M12 31.2485H13.5" stroke="#091F40" stroke-width="2"/>
<path d="M31 47.2485H32.5" stroke="#091F40" stroke-width="2"/>
<path d="M15 31.2485H16.5" stroke="#091F40" stroke-width="2"/>
<path d="M34 47.2485H35.5" stroke="#091F40" stroke-width="2"/>
<path d="M18.5 13.7485V20.7485M16 16.7485H20.5M16 20.7485H20.5" stroke="#091F40" stroke-width="1.5"/>
<path d="M37.5 29.7485V36.7485M35 32.7485H39.5M35 36.7485H39.5" stroke="#091F40" stroke-width="1.5"/>
<rect x="0.75" y="7.99854" width="19.5" height="5.5" stroke="#091F40" stroke-width="1.5"/>
<rect x="19.75" y="23.9985" width="19.5" height="5.5" stroke="#091F40" stroke-width="1.5"/>
<path d="M2.5 13.7485V39.7485H9.5C10.1667 38.5819 12.3 36.9485 15.5 39.7485H18.5" stroke="#091F40" stroke-width="1.5"/>
<path d="M21.5 29.7485V55.7485H28.5C29.1667 54.5819 31.3 52.9485 34.5 55.7485H37.5H55V46.2485C55 44.4152 53.6 40.5485 48 39.7485H40.5C39.5 39.5819 37.5 38.7485 37.5 36.7485" stroke="#091F40" stroke-width="1.5"/>
<path d="M2.5 37.2485H8" stroke="#091F40"/>
<path d="M21.5 53.2485H27" stroke="#091F40"/>
<path d="M35 53.2485H55" stroke="#091F40"/>
<path d="M45.5 39.7485V44.7485C45.5 45.4152 45 46.7485 43 46.7485H39.5V50.2485" stroke="#091F40"/>
<path d="M3 34.7485H8.5M18.5 34.7485H8.5M3 29.2485C4.33333 29.5819 7.3 31.1485 8.5 34.7485" stroke="#091F40"/>
<path d="M22 50.7485H27.5M22 45.2485C23.3333 45.5819 26.3 47.1485 27.5 50.7485M27.5 50.7485H37.5H55" stroke="#091F40"/>
<circle cx="32" cy="11.2485" r="1.5" stroke="#091F40"/>
<circle cx="32" cy="11.2485" r="5" stroke="#091F40" stroke-width="2" stroke-dasharray="3 3"/>
<path d="M53.5 10.2483V10.9983H53.8107L54.0303 10.7787L53.5 10.2483ZM50.5 2.74833L49.9356 3.24221L50.264 3.61757L50.7372 3.45984L50.5 2.74833ZM45 2.74833L44.3292 2.41292L44.2924 2.48657L44.2724 2.56645L45 2.74833ZM44.5 4.74854L44.394 5.491L45.0636 5.58662L45.2276 4.93042L44.5 4.74854ZM43 10.9983H53.5V9.49833H43V10.9983ZM54.0303 10.7787C54.4169 10.3921 54.9619 9.70609 55.4137 8.84764C55.8652 7.98978 56.25 6.90961 56.25 5.74833H54.75C54.75 6.58705 54.4681 7.42355 54.0863 8.14902C53.7048 8.87391 53.2498 9.4379 52.9697 9.718L54.0303 10.7787ZM56.25 5.74833C56.25 4.08767 55.0776 3.00741 53.8818 2.44472C52.7037 1.89032 51.2492 1.70803 50.2628 2.03682L50.7372 3.45984C51.2508 3.28863 52.2963 3.35634 53.2432 3.80194C54.1724 4.23925 54.75 4.90899 54.75 5.74833H56.25ZM51.0644 2.25445C50.4341 1.53405 49.3297 0.600601 48.0783 0.316894C47.4293 0.16975 46.7161 0.193354 46.0302 0.542397C45.35 0.888508 44.7794 1.51248 44.3292 2.41292L45.6708 3.08374C46.0206 2.38418 46.3917 2.04149 46.7105 1.87926C47.0235 1.71997 47.3665 1.69358 47.7467 1.77977C48.5537 1.96273 49.3993 2.62928 49.9356 3.24221L51.0644 2.25445ZM44.2724 2.56645L43.7724 4.56665L45.2276 4.93042L45.7276 2.93022L44.2724 2.56645ZM44.606 4.00607C43.9314 3.90974 42.8956 3.92948 41.9911 4.35848C41.5272 4.57849 41.0826 4.91417 40.7564 5.40958C40.4283 5.90783 40.25 6.52226 40.25 7.24854H41.75C41.75 6.7749 41.8633 6.45603 42.0092 6.23452C42.1569 6.01017 42.3686 5.8396 42.6339 5.71376C43.1878 5.45107 43.9019 5.42073 44.394 5.491L44.606 4.00607ZM40.25 7.24854C40.25 8.58962 40.6255 9.53786 41.1997 10.1579C41.7635 10.7668 42.4655 10.9983 43 10.9983V9.49833C42.8678 9.49833 42.5699 9.42989 42.3003 9.1388C42.0412 8.85894 41.75 8.30729 41.75 7.24854H40.25Z" fill="#091F40"/>
</svg>
