<svg width="59" height="58" viewBox="0 0 59 58" fill="none" xmlns="http://www.w3.org/2000/svg">
<path d="M15.2712 16.5015C19.5519 16.5015 23.022 13.0314 23.022 8.75075C23.022 4.47013 19.5519 1 15.2712 1C10.9906 1 7.5205 4.47013 7.5205 8.75075C7.5205 13.0314 10.9906 16.5015 15.2712 16.5015Z" stroke="#091F40" stroke-width="1.5" stroke-miterlimit="10"/>
<path d="M4.8637 24.8761L1.66703 36.4311C1.66703 36.4311 0.821427 37.9791 2.93544 39.1092C5.04946 40.2392 6.03149 36.2908 6.03149 36.2908L9.80479 24.8741L4.8637 24.8761Z" stroke="#091F40" stroke-width="1.5" stroke-miterlimit="10"/>
<path d="M9.80794 37.4183L8.43117 41.7866V54.61C8.43117 54.61 8.00837 56.8643 10.8267 56.8643C13.6451 56.8643 13.3636 54.4688 13.3636 54.4688V38.5454L9.80794 37.4183Z" stroke="#091F40" stroke-width="1.5" stroke-miterlimit="10"/>
<path d="M25.6771 24.8761L28.7905 36.4311C28.7905 36.4311 29.6362 37.9791 27.5221 39.1092C25.4081 40.2392 24.4261 36.2908 24.4261 36.2908L20.6528 24.8741L25.6771 24.8761Z" stroke="#091F40" stroke-width="1.5" stroke-miterlimit="10"/>
<path d="M20.6495 37.4183L22.0262 41.7866V54.61C22.0262 54.61 22.449 56.8643 19.6307 56.8643C16.8123 56.8643 17.0938 54.4688 17.0938 54.4688V38.5454L20.6495 37.4183Z" stroke="#091F40" stroke-width="1.5" stroke-miterlimit="10"/>
<path d="M15.2284 41.7866H22.0687L21.9275 26.9904H26.1555C25.8047 24.2826 24.5067 21.7864 22.4916 19.944H8.05045C6.03527 21.7864 4.73729 24.2826 4.38648 26.9904H8.61451L8.47325 41.7866H15.2284V41.7866Z" stroke="#091F40" stroke-width="1.5" stroke-miterlimit="10"/>
<path d="M8.50975 35.5858H18.2333" stroke="#091F40" stroke-width="1.5" stroke-miterlimit="10"/>
<path d="M33.4059 24.8764L30.2092 36.4314C30.2092 36.4314 29.3636 37.9794 31.4776 39.1095C33.5917 40.2395 34.5737 36.2911 34.5737 36.2911L38.347 24.8745L33.4059 24.8764Z" stroke="#091F40" stroke-width="1.5" stroke-miterlimit="10"/>
<path d="M38.3501 37.4181L36.9734 41.7864V54.6099C36.9734 54.6099 36.5506 56.8642 39.3689 56.8642C42.1873 56.8642 41.9057 54.4686 41.9057 54.4686V38.5453L38.3501 37.4181Z" stroke="#091F40" stroke-width="1.5" stroke-miterlimit="10"/>
<path d="M54.2194 24.8764L57.3328 36.4314C57.3328 36.4314 58.1784 37.9794 56.0654 39.1095C53.9523 40.2395 52.9645 36.2911 52.9645 36.2911L49.1912 24.8745L54.2194 24.8764Z" stroke="#091F40" stroke-width="1.5" stroke-miterlimit="10"/>
<path d="M49.1917 37.4181L50.5685 41.7864V54.6099C50.5685 54.6099 50.9913 56.8642 48.1729 56.8642C45.3545 56.8642 45.6371 54.4686 45.6371 54.4686V38.5453L49.1917 37.4181Z" stroke="#091F40" stroke-width="1.5" stroke-miterlimit="10"/>
<path d="M39.2083 5.74387H36.8118C36.8118 5.74387 30.8132 6.97261 30.3294 14.8946H36.8118L38.799 8.57481L39.2083 5.74387Z" stroke="#091F40" stroke-width="1.5" stroke-miterlimit="10"/>
<path d="M47.4036 5.74387H49.7991C49.7991 5.74387 55.8035 6.97261 56.2815 14.8946H49.7991L47.8128 8.57481L47.4036 5.74387Z" stroke="#091F40" stroke-width="1.5" stroke-miterlimit="10"/>
<path d="M43.7713 15.534C47.6148 15.534 50.7306 12.4183 50.7306 8.57472C50.7306 4.73119 47.6148 1.6154 43.7713 1.6154C39.9278 1.6154 36.812 4.73119 36.812 8.57472C36.812 12.4183 39.9278 15.534 43.7713 15.534Z" stroke="#091F40" stroke-width="1.5" stroke-miterlimit="10"/>
<path d="M43.7707 44.9457H55.0954L51.1286 26.1653L51.6753 29.033H56.1829C54.9532 21.9992 51.4024 19.95 51.4024 19.95H36.1351C36.1351 19.95 32.5833 21.9992 31.3536 29.033H35.8613L36.4079 26.1653L32.4469 44.9457H43.7707Z" stroke="#091F40" stroke-width="1.5" stroke-miterlimit="10"/>
<path d="M37.2154 7.60708H50.3281" stroke="#091F40" stroke-width="1.5" stroke-miterlimit="10"/>
<path d="M38.9218 38.4565V41.7867" stroke="#091F40" stroke-width="1.5" stroke-miterlimit="10"/>
<path d="M43.8397 38.4565V41.7867" stroke="#091F40" stroke-width="1.5" stroke-miterlimit="10"/>
<path d="M48.6196 38.4565V41.7867" stroke="#091F40" stroke-width="1.5" stroke-miterlimit="10"/>
</svg>
