<svg width="56" height="57" viewBox="0 0 56 57" fill="none" xmlns="http://www.w3.org/2000/svg">
<path d="M8 1.11646H23.64V55.1165H8C4.134 55.1165 1 51.9824 1 48.1165V8.11645C1 4.25046 4.13401 1.11646 8 1.11646Z" stroke="#091F40" stroke-width="2"/>
<path d="M7.83973 33.5962H16.7997C16.866 33.5962 16.9197 33.6499 16.9197 33.7162C16.9197 33.7825 16.866 33.8362 16.7997 33.8362H7.83973C7.77345 33.8362 7.71973 33.7825 7.71973 33.7162C7.71973 33.6499 7.77345 33.5962 7.83973 33.5962Z" stroke="#091F40" stroke-width="1.12"/>
<path d="M7.83973 38.0767H16.7997C16.866 38.0767 16.9197 38.1304 16.9197 38.1967C16.9197 38.2629 16.866 38.3167 16.7997 38.3167H7.83973C7.77345 38.3167 7.71973 38.2629 7.71973 38.1967C7.71973 38.1304 7.77345 38.0767 7.83973 38.0767Z" stroke="#091F40" stroke-width="1.12"/>
<path d="M7.83973 43.6765H16.7997C16.866 43.6765 16.9197 43.7302 16.9197 43.7965C16.9197 43.8628 16.866 43.9165 16.7997 43.9165H7.83973C7.77345 43.9165 7.71973 43.8628 7.71973 43.7965C7.71973 43.7302 7.77345 43.6765 7.83973 43.6765Z" stroke="#091F40" stroke-width="1.12"/>
<path d="M7.83973 48.1562H16.7997C16.866 48.1562 16.9197 48.21 16.9197 48.2763C16.9197 48.3425 16.866 48.3963 16.7997 48.3963H7.83973C7.77345 48.3963 7.71973 48.3425 7.71973 48.2763C7.71973 48.21 7.77345 48.1562 7.83973 48.1562Z" stroke="#091F40" stroke-width="1.12"/>
<path d="M53 1.11646H23.4V13.6765H53C54.1046 13.6765 55 12.781 55 11.6765V3.11646C55 2.01189 54.1046 1.11646 53 1.11646Z" stroke="#091F40" stroke-width="2"/>
<path d="M44.9204 13.4365H33.4804V18.3965C33.4804 19.5011 34.3758 20.3965 35.4804 20.3965H42.9204C44.025 20.3965 44.9204 19.5011 44.9204 18.3965V13.4365Z" stroke="#091F40" stroke-width="2"/>
<path d="M48.2803 32.4763H30.1203V41.2763C30.1203 44.59 32.8066 47.2763 36.1203 47.2763H42.2803C45.594 47.2763 48.2803 44.59 48.2803 41.2763V32.4763Z" stroke="#091F40" stroke-width="2"/>
<path d="M50 49.2769H23.4V55.1169H55V54.2769C55 51.5154 52.7614 49.2769 50 49.2769Z" stroke="#091F40" stroke-width="2"/>
<circle cx="12.3196" cy="11.3167" r="3.48" stroke="#091F40" stroke-width="2"/>
<circle cx="12.3196" cy="23.6362" r="3.48" stroke="#091F40" stroke-width="2"/>
<circle cx="36.9596" cy="23.6361" r="1.12" fill="#091F40"/>
<circle cx="41.4406" cy="23.6361" r="1.12" fill="#091F40"/>
<circle cx="36.9596" cy="25.8766" r="1.12" fill="#091F40"/>
<circle cx="41.4406" cy="25.8766" r="1.12" fill="#091F40"/>
<circle cx="36.9596" cy="28.1166" r="1.12" fill="#091F40"/>
<circle cx="41.4406" cy="28.1166" r="1.12" fill="#091F40"/>
<path d="M48.1599 34.8363C49.6532 34.0896 52.9759 33.3803 54.3199 36.5163C55.6639 39.6523 53.0132 41.9297 51.5199 42.6764L47.5999 44.3564" stroke="#091F40" stroke-width="2" stroke-linejoin="round"/>
</svg>
