<svg width="21" height="20" viewBox="0 0 21 20" fill="none" xmlns="http://www.w3.org/2000/svg">
<path d="M10.575 15C10.7917 15 10.9708 14.9292 11.1125 14.7875C11.2542 14.6458 11.325 14.4667 11.325 14.25V9.725C11.325 9.525 11.25 9.35417 11.1 9.2125C10.95 9.07083 10.775 9 10.575 9C10.3583 9 10.1792 9.07083 10.0375 9.2125C9.89583 9.35417 9.825 9.53333 9.825 9.75V14.275C9.825 14.475 9.9 14.6458 10.05 14.7875C10.2 14.9292 10.375 15 10.575 15ZM10.5 7.15C10.7333 7.15 10.9292 7.075 11.0875 6.925C11.2458 6.775 11.325 6.58333 11.325 6.35C11.325 6.11667 11.2458 5.91667 11.0875 5.75C10.9292 5.58333 10.7333 5.5 10.5 5.5C10.2667 5.5 10.0708 5.58333 9.9125 5.75C9.75417 5.91667 9.675 6.11667 9.675 6.35C9.675 6.58333 9.75417 6.775 9.9125 6.925C10.0708 7.075 10.2667 7.15 10.5 7.15ZM10.5 20C9.08333 20 7.76667 19.7458 6.55 19.2375C5.33333 18.7292 4.275 18.025 3.375 17.125C2.475 16.225 1.77083 15.1667 1.2625 13.95C0.754167 12.7333 0.5 11.4167 0.5 10C0.5 8.6 0.754167 7.29167 1.2625 6.075C1.77083 4.85833 2.475 3.8 3.375 2.9C4.275 2 5.33333 1.29167 6.55 0.775C7.76667 0.258333 9.08333 0 10.5 0C11.9 0 13.2083 0.258333 14.425 0.775C15.6417 1.29167 16.7 2 17.6 2.9C18.5 3.8 19.2083 4.85833 19.725 6.075C20.2417 7.29167 20.5 8.6 20.5 10C20.5 11.4167 20.2417 12.7333 19.725 13.95C19.2083 15.1667 18.5 16.225 17.6 17.125C16.7 18.025 15.6417 18.7292 14.425 19.2375C13.2083 19.7458 11.9 20 10.5 20ZM10.5 18.5C12.8333 18.5 14.8333 17.6667 16.5 16C18.1667 14.3333 19 12.3333 19 10C19 7.66667 18.1667 5.66667 16.5 4C14.8333 2.33333 12.8333 1.5 10.5 1.5C8.16667 1.5 6.16667 2.33333 4.5 4C2.83333 5.66667 2 7.66667 2 10C2 12.3333 2.83333 14.3333 4.5 16C6.16667 17.6667 8.16667 18.5 10.5 18.5Z" fill="#091F40"/>
</svg>
