<svg width="50" height="56" viewBox="0 0 50 56" fill="none" xmlns="http://www.w3.org/2000/svg">
<rect x="9" y="1" width="31.6" height="54" rx="4" stroke="#091F40" stroke-width="2"/>
<path d="M9.11987 8.39966H40.4799" stroke="#091F40" stroke-width="2" stroke-linejoin="round"/>
<path d="M9.11987 45.9199H40.4799" stroke="#091F40" stroke-width="2" stroke-linejoin="round"/>
<path fill-rule="evenodd" clip-rule="evenodd" d="M27.8175 18.2857C28.3064 18.7406 28.3324 19.5043 27.8756 19.9915L18.7576 29.7161C18.3021 30.202 17.5394 30.228 17.0518 29.7743C16.5617 29.3181 16.5355 28.5505 16.9935 28.062L26.1053 18.344C26.5621 17.8568 27.3287 17.8307 27.8175 18.2857Z" fill="#091F40"/>
<path fill-rule="evenodd" clip-rule="evenodd" d="M23.4273 14.8493C23.8398 15.2077 23.8604 15.8109 23.4732 16.1965L15.698 23.9425C15.3313 24.3077 14.7448 24.3277 14.3542 23.9883C13.9217 23.6125 13.8991 22.9486 14.305 22.5442L21.9796 14.8986C22.3667 14.5129 23.0149 14.4909 23.4273 14.8493Z" fill="#091F40"/>
<circle cx="24.7993" cy="50.4004" r="2.24" fill="#091F40"/>
</svg>
