<svg width="19" height="19" viewBox="0 0 19 19" fill="none" xmlns="http://www.w3.org/2000/svg">
<path d="M16.85 18.425L10.825 12.4C10.325 12.8333 9.74167 13.1708 9.075 13.4125C8.40833 13.6542 7.7 13.775 6.95 13.775C5.15 13.775 3.625 13.15 2.375 11.9C1.125 10.65 0.5 9.14167 0.5 7.37501C0.5 5.60834 1.125 4.10001 2.375 2.85001C3.625 1.60001 5.14167 0.975006 6.925 0.975006C8.69167 0.975006 10.1958 1.60001 11.4375 2.85001C12.6792 4.10001 13.3 5.60834 13.3 7.37501C13.3 8.09167 13.1833 8.78334 12.95 9.45001C12.7167 10.1167 12.3667 10.7417 11.9 11.325L17.975 17.35C18.125 17.4833 18.2 17.6542 18.2 17.8625C18.2 18.0708 18.1167 18.2583 17.95 18.425C17.8 18.575 17.6167 18.65 17.4 18.65C17.1833 18.65 17 18.575 16.85 18.425ZM6.925 12.275C8.275 12.275 9.425 11.7958 10.375 10.8375C11.325 9.87917 11.8 8.72501 11.8 7.37501C11.8 6.02501 11.325 4.87084 10.375 3.91251C9.425 2.95417 8.275 2.47501 6.925 2.47501C5.55833 2.47501 4.39583 2.95417 3.4375 3.91251C2.47917 4.87084 2 6.02501 2 7.37501C2 8.72501 2.47917 9.87917 3.4375 10.8375C4.39583 11.7958 5.55833 12.275 6.925 12.275Z" fill="#45816D"/>
</svg>
