<svg width="58" height="58" viewBox="0 0 58 58" fill="none" xmlns="http://www.w3.org/2000/svg">
<path d="M15 5.66675L24.3333 17.3334L29 12.0834L33.6667 17.3334L43 5.66675" stroke="#091F40" stroke-width="2" stroke-linejoin="round"/>
<path d="M10.3333 24.9167V57.0001H47.0833V24.9167" stroke="#091F40" stroke-width="2" stroke-linecap="round" stroke-linejoin="round"/>
<path d="M19.6667 1.58325L29.0001 11.4999V40.0833C28.4167 45.5277 23.9834 56.5333 10.9167 56.9999" stroke="#091F40" stroke-width="2" stroke-linejoin="round"/>
<path d="M38.3334 1.58325L29.0001 11.4999V40.0833C29.5834 45.5277 34.6001 56.5333 47.6667 56.9999" stroke="#091F40" stroke-width="2" stroke-linejoin="round"/>
<path d="M9.75 48.25C6.83333 47.6667 1 44.9833 1 38.9167C1 32.85 1 22 1 17.3333C1 16.5556 1.81667 14.5333 5.08333 12.6667C8.35 10.8 13.0556 7.22222 15 5.66667L19.6667 1H37.75" stroke="#091F40" stroke-width="2" stroke-linejoin="round"/>
<path d="M47.0833 48.25C50 47.6667 57 44.9833 57 38.9167C57 32.85 57 22 57 17.3333C57 16.5556 56.1833 14.5333 52.9167 12.6667C49.65 10.8 44.9444 7.22222 43 5.66667L38.3333 1H20.25" stroke="#091F40" stroke-width="2" stroke-linejoin="round"/>
</svg>
