<svg width="73" height="73" viewBox="0 0 73 73" fill="none" xmlns="http://www.w3.org/2000/svg">
<path d="M10.797 13.1298C-0.202497 24.1298 0.296875 36.1298 1.79631 42.1299C3.29574 48.1299 14.6027 52.9685 20.7963 58.1299C26.7963 63.1299 30.2963 69.1299 34.7963 71.1299C48.7963 72.6299 56.1999 66.9924 63.7963 58.1299C72.7963 47.6298 72.1344 38.5411 71.2963 34.6299C69.7963 27.6298 61.3626 25.1963 53.7963 17.6299C47.2963 11.1298 46.7963 1.62991 34.7963 1.62988C27.2299 1.62987 20.7965 3.12979 10.797 13.1298Z" fill="#559F85" stroke="#559F85" stroke-width="2"/>
<path d="M55.2298 19.6299H30.4402C30.2656 19.6295 30.096 19.6886 29.9594 19.7974C29.8228 19.9061 29.7273 20.0582 29.6885 20.2284L29.2905 21.9771L24.9387 24.6682C24.8272 24.7374 24.7353 24.834 24.6716 24.9488C24.608 25.0635 24.5748 25.1927 24.5752 25.3239V36.7671C24.6797 36.7605 24.7856 36.7344 24.8901 36.7344C25.0745 36.7337 25.2586 36.7457 25.4413 36.7703L26.1134 36.8585V26.0938H51.6314V52.7255H26.27L24.8934 54.1038C25.0208 54.2062 25.1785 54.2635 25.3419 54.2669H52.4036C52.5402 54.2667 52.6743 54.2304 52.7923 54.1616C52.9104 54.0929 53.0081 53.9942 53.0757 53.8755L54.5159 51.3245L55.6853 50.4696C55.7828 50.3979 55.862 50.3043 55.9167 50.1964C55.9714 50.0884 56 49.9692 56.0002 49.8482V20.4005C56 20.1963 55.9189 20.0005 55.7745 19.856C55.6302 19.7115 55.4344 19.6302 55.2302 19.6299H55.2298ZM51.2793 22.2315C51.1487 22.3226 51.0497 22.4521 50.9959 22.602C50.9422 22.7519 50.9363 22.9148 50.9792 23.0682L51.3903 24.5525H28.0537L30.3765 23.1172C30.4632 23.0638 30.5383 22.9935 30.5974 22.9106C30.6565 22.8277 30.6984 22.7338 30.7206 22.6344L31.0548 21.1711H52.7892L51.2793 22.2315ZM54.4582 49.4541L53.4716 50.1768C53.3829 50.2415 53.3089 50.3244 53.2546 50.42L53.1746 50.562V25.3236C53.1744 25.2542 53.1645 25.1852 53.145 25.1186L52.61 23.1808L54.458 21.884L54.4582 49.4541Z" fill="white"/>
<path d="M34.0253 33.0676C34.0276 32.6147 33.904 32.17 33.6681 31.7833C33.4322 31.3966 33.0934 31.0831 32.6896 30.8779C32.2858 30.6728 31.8328 30.5839 31.3814 30.6214C30.93 30.6589 30.4979 30.8212 30.1335 31.0901C29.769 31.3591 29.4866 31.7242 29.3177 32.1444C29.1488 32.5647 29.1001 33.0237 29.1772 33.4701C29.2542 33.9165 29.4538 34.3326 29.7538 34.672C30.0538 35.0114 30.4422 35.2607 30.8758 35.392C31.2736 38.4013 33.3321 43.2143 38.9296 43.2143C44.5271 43.2143 46.5808 38.3995 46.9802 35.392C47.5327 35.2234 48.0073 34.864 48.3193 34.3779C48.6314 33.8918 48.7605 33.3107 48.6837 32.7382C48.6068 32.1657 48.3291 31.6391 47.8999 31.2525C47.4708 30.8658 46.9182 30.6443 46.3408 30.6274C45.7634 30.6105 45.1988 30.7993 44.7478 31.1602C44.2967 31.521 43.9886 32.0304 43.8784 32.5975C43.7682 33.1645 43.8632 33.7522 44.1462 34.2557C44.4293 34.7593 44.882 35.1458 45.4237 35.3464C45.1463 37.0884 43.946 41.6731 38.9325 41.6731C33.935 41.6731 32.7201 37.0884 32.4412 35.3464C32.9049 35.1716 33.3046 34.8601 33.5873 34.4532C33.8701 34.0463 34.0227 33.5631 34.0249 33.0676H34.0253ZM45.3721 33.0676C45.3721 32.8899 45.4248 32.7162 45.5236 32.5685C45.6223 32.4208 45.7626 32.3056 45.9268 32.2376C46.0909 32.1696 46.2716 32.1519 46.4459 32.1865C46.6201 32.2212 46.7802 32.3068 46.9059 32.4324C47.0315 32.5581 47.1171 32.7181 47.1517 32.8924C47.1864 33.0667 47.1686 33.2473 47.1006 33.4115C47.0326 33.5757 46.9175 33.716 46.7698 33.8147C46.622 33.9134 46.4483 33.9661 46.2706 33.9662C46.1526 33.9662 46.0358 33.943 45.9267 33.8979C45.8177 33.8528 45.7186 33.7866 45.6351 33.7031C45.5517 33.6197 45.4855 33.5206 45.4404 33.4116C45.3952 33.3025 45.372 33.1856 45.3721 33.0676ZM31.5803 33.9665C31.4027 33.9659 31.2293 33.9126 31.0819 33.8135C30.9346 33.7144 30.8199 33.5738 30.7524 33.4096C30.6849 33.2454 30.6676 33.0648 30.7026 32.8907C30.7377 32.7166 30.8235 32.5568 30.9493 32.4315C31.0751 32.3061 31.2352 32.2209 31.4094 32.1865C31.5836 32.1521 31.7641 32.1701 31.9281 32.2382C32.0921 32.3063 32.2323 32.4214 32.3309 32.5691C32.4294 32.7168 32.4821 32.8904 32.4821 33.068C32.4816 33.3067 32.3863 33.5355 32.2172 33.704C32.0481 33.8725 31.819 33.9669 31.5803 33.9665Z" fill="white"/>
<path d="M25.1659 41.5284C24.876 41.8179 24.6785 42.1869 24.5985 42.5887C24.5184 42.9904 24.5594 43.407 24.7163 43.7854C24.8731 44.1639 25.1387 44.4873 25.4795 44.7147C25.8203 44.9421 26.2209 45.0632 26.6306 45.0628C27.0403 45.0627 27.4407 44.9412 27.7813 44.7136C28.1219 44.486 28.3874 44.1625 28.5442 43.784C28.701 43.4055 28.742 42.989 28.6621 42.5872C28.5822 42.1854 28.3849 41.8164 28.0952 41.5267C27.3152 40.7439 25.952 40.7422 25.1659 41.5284ZM27.0077 43.3666C26.9069 43.4627 26.773 43.5164 26.6337 43.5167C26.4945 43.517 26.3604 43.4638 26.2592 43.3681C26.1846 43.2943 26.1336 43.1999 26.1126 43.0971C26.0917 42.9942 26.1017 42.8874 26.1415 42.7903C26.1814 42.6931 26.2491 42.61 26.3362 42.5514C26.4233 42.4928 26.5259 42.4614 26.6309 42.4612C26.7007 42.4605 26.77 42.4741 26.8344 42.501C26.8989 42.5279 26.9572 42.5676 27.0058 42.6178C27.0554 42.6666 27.0948 42.7249 27.1218 42.7891C27.1487 42.8533 27.1627 42.9222 27.1628 42.9918C27.163 43.0614 27.1494 43.1304 27.1228 43.1947C27.0961 43.2591 27.057 43.3175 27.0077 43.3666Z" fill="white"/>
<path d="M30.7781 44.1337L30.3704 41.0266C30.256 40.1461 29.4748 39.3663 28.5959 39.2538L25.4905 38.8474C24.7124 38.7449 23.7095 39.0887 23.1616 39.6396L16.5164 46.2848C16.3527 46.4484 16.2228 46.6427 16.1342 46.8565C16.0456 47.0702 16 47.2994 16 47.5308C16 47.7623 16.0456 47.9914 16.1342 48.2052C16.2228 48.419 16.3527 48.6132 16.5164 48.7768L20.8483 53.107C21.1796 53.4361 21.6276 53.6207 22.0945 53.6207C22.5614 53.6207 23.0094 53.4361 23.3407 53.107L29.9859 46.4608C30.5367 45.9081 30.8779 44.9066 30.7781 44.1337ZM28.8963 45.3715L22.2511 52.0167C22.1401 52.1292 22.0473 52.126 21.9394 52.0167L17.6077 47.6858C17.5673 47.6442 17.5445 47.5886 17.5441 47.5306C17.5445 47.4723 17.5673 47.4163 17.6077 47.3742L24.253 40.7278C24.4437 40.537 24.8712 40.3737 25.2756 40.3737H25.2953L28.4008 40.78C28.5092 40.8052 28.6083 40.8603 28.687 40.939C28.7657 41.0177 28.8208 41.1169 28.846 41.2253L29.2505 44.3289C29.2878 44.6321 29.1099 45.1557 28.8963 45.3709V45.3715Z" fill="white"/>
</svg>
