<svg width="167" height="153" viewBox="0 0 167 153" fill="none" xmlns="http://www.w3.org/2000/svg">
<path d="M83.1539 49.9309C75.9431 40.3747 61.5227 41.9155 56.5072 53.0137C50.2373 67.1943 65.2846 75.2098 69.3609 80.7584L80.9603 93.7057C81.6553 94.3019 82.5463 94.6303 83.4685 94.6303C84.3908 94.6303 85.2818 94.3019 85.9768 93.7057C85.9768 93.7057 93.5003 85.3829 97.5762 80.7584C106.04 71.2022 115.445 65.9607 110.743 53.6305C105.411 41.9155 90.3656 40.3736 83.1537 49.9309H83.1539ZM92.2452 77.0589C89.737 80.1416 85.6619 84.4572 83.1539 87.5397L73.7486 77.0589C69.3597 70.5851 57.7603 65.6524 62.1492 55.7876C65.5976 48.0807 75.6293 48.3893 79.0777 55.4791C79.7041 57.0204 81.2721 57.9455 83.1528 57.9455C85.0335 57.9455 86.6012 57.0207 87.2279 55.4791C90.9901 48.3882 101.022 48.0807 104.47 56.4036C107.605 64.419 101.335 66.8855 92.2449 77.0589H92.2452Z" fill="#E7E8E8"/>
<path d="M156.591 7.02988C144.409 -3.12012 125.962 -2.41949 110.648 1.08019C102.99 -9.42043 93.5933 -15.3701 83.4997 -15.3701C73.4062 -15.3701 64.009 -9.42043 56.3518 1.08019C41.0371 -2.41949 22.5906 -3.12012 10.4087 7.02988C-7.68948 22.0799 0.663502 49.0299 13.8892 68.6299C1.01093 88.2296 -7.34205 115.18 10.4087 130.23C22.5906 140.38 41.0371 139.679 56.3518 136.18C64.0093 146.33 73.059 152.63 83.4997 152.63C93.9404 152.63 102.99 146.68 110.648 136.18C125.962 139.68 144.757 140.03 156.591 130.23C174.689 115.18 166.336 88.2299 153.11 68.6299C166.336 49.0302 174.69 22.0799 156.591 7.02988ZM83.4994 -8.37012C90.4605 -8.37012 97.4216 -4.1698 102.99 2.82988C96.7252 4.57988 90.1118 7.37957 83.4994 10.1799C77.2219 7.17774 70.7014 4.71885 64.0087 2.82988C69.5769 -4.17012 76.5386 -8.37012 83.4994 -8.37012V-8.37012ZM121.785 68.6299C121.785 78.0793 120.741 87.5299 119.349 95.9296C119.001 96.2799 118.653 96.2799 118.305 96.6289C107.557 105.458 95.8867 113.086 83.4997 119.379C71.6665 113.429 59.832 106.079 48.6943 96.6289C48.346 96.2786 47.9985 96.2786 47.6502 95.9296C46.2579 87.5299 45.2141 78.0793 45.2141 68.6299C45.2141 59.1805 46.2579 49.7299 47.6502 41.3302C47.9985 40.9799 48.346 40.9799 48.6943 40.6305C59.4425 31.8019 71.1128 24.1739 83.4997 17.8805C95.3329 23.8302 107.167 31.1802 118.305 40.6305C118.653 40.9811 119.001 40.9811 119.349 41.3302C120.741 49.7299 121.785 59.1805 121.785 68.6299ZM127.355 48.6799C133.723 54.8068 139.546 61.4823 144.758 68.6299C139.885 75.2802 133.968 81.9296 127.355 88.5799C128.399 82.2799 128.747 75.6296 128.747 68.6299C128.747 61.6302 128.399 54.9799 127.355 48.6799V48.6799ZM116.564 107.13C114.128 115.181 110.995 122.53 107.515 128.48C102.194 127.047 96.9636 125.294 91.8521 123.23C100.206 118.33 108.559 113.08 116.564 107.13H116.564ZM75.4939 122.88C70.273 124.98 65.0522 127.08 59.8314 128.13C56.3509 122.18 53.2181 114.83 50.7817 106.78C58.4392 113.079 66.7922 118.329 75.4935 122.88H75.4939ZM39.6443 88.5799C33.2759 82.453 27.4528 75.7775 22.2416 68.6299C27.1144 61.9796 33.031 55.3302 39.6443 48.6799C38.6004 54.9799 38.2521 61.6302 38.2521 68.6299C38.2521 75.6296 38.6004 82.2799 39.6443 88.5799ZM50.4349 30.1299C52.8713 22.0793 56.0044 14.7296 59.4846 8.77988C64.8054 10.2126 70.0356 11.9658 75.147 14.0299C66.7928 18.9299 58.4398 24.1799 50.4352 30.1299H50.4349ZM91.5053 14.3799C96.7261 12.2802 101.947 10.1796 107.168 9.12988C110.648 15.0796 113.781 22.4296 116.217 30.4799C108.56 24.1811 100.207 18.9308 91.5056 14.3799H91.5053ZM14.5853 12.2811C24.3318 4.23176 39.9939 4.93113 52.5232 7.03113C47.6505 15.4308 43.8219 25.9311 41.3855 37.4814C32.3358 45.5321 24.3312 53.9318 18.0662 62.3314C7.97263 46.9311 0.663502 24.1814 14.5857 12.2814L14.5853 12.2811ZM14.5853 124.981C0.314514 113.082 7.97201 90.6811 17.7172 74.9311C23.9822 83.3308 31.988 91.7318 41.0365 99.7811C43.4729 111.681 47.3015 121.831 52.1742 130.231C39.9924 132.331 24.3318 133.031 14.5844 124.981L14.5853 124.981ZM83.5 145.63C76.539 145.63 69.5779 141.43 64.0093 134.43C70.2743 132.68 76.8876 129.88 83.5 127.08C89.7776 130.082 96.2981 132.541 102.991 134.43C97.4225 141.43 90.4608 145.63 83.5 145.63ZM152.415 124.981C142.67 133.031 127.006 132.681 114.825 130.231C119.698 121.831 123.526 111.331 125.963 99.7802C135.012 91.7296 143.017 83.3299 149.282 74.9302C159.027 90.3305 166.336 113.08 152.415 124.98L152.415 124.981ZM125.614 37.8305C123.178 25.9311 119.349 15.7808 114.476 7.3802C126.658 4.9302 142.321 4.57988 152.066 12.6302C166.337 24.5296 158.679 46.9302 148.934 62.6802C142.668 53.9302 134.663 45.5293 125.614 37.8302L125.614 37.8305Z" fill="#E7E8E8"/>
</svg>
