<svg width="132" height="132" viewBox="0 0 132 132" fill="none" xmlns="http://www.w3.org/2000/svg">
<path opacity="0.5" d="M79.5006 -25.3701C59.7085 -25.3045 40.6786 -17.7309 26.2537 -4.17889C18.545 3.02552 12.4107 11.7474 8.23688 21.438C4.06305 31.1286 1.93999 41.5782 2.00129 52.1292C2.00129 67.4571 6.54655 82.4408 15.0623 95.1855C23.578 107.93 35.6818 117.864 49.8429 123.729C64.0041 129.595 79.5866 131.13 94.62 128.139C109.653 125.149 123.462 117.768 134.301 106.93C145.139 96.0911 152.521 82.282 155.511 67.2486C158.501 52.2152 156.966 36.6327 151.101 22.4715C145.235 8.31035 135.302 -3.79339 122.557 -12.3091C109.812 -20.8249 94.8285 -25.3701 79.5006 -25.3701ZM119.636 23.067L77.7714 87.0524L77.7375 87.0863C77.5592 87.4351 77.3552 87.7703 77.1272 88.0889C76.7246 88.4567 76.2847 88.7814 75.8146 89.0577C75.708 89.1303 75.5966 89.2175 75.4803 89.295C74.8196 89.7103 74.0945 90.0131 73.3346 90.1911C73.0908 90.2623 72.8434 90.3205 72.5935 90.3654C71.9849 90.4486 71.3683 90.4567 70.7577 90.3897C70.3264 90.3622 69.8984 90.2957 69.479 90.1911C69.0475 90.0665 68.6277 89.9044 68.2245 89.7067C67.865 89.5939 67.5138 89.4564 67.1734 89.295C66.9658 89.1172 66.773 88.9228 66.597 88.7137C66.5098 88.6362 66.3984 88.6169 66.3112 88.5394L41.9377 65.9629C41.2004 65.2813 40.6047 64.4612 40.1844 63.5494C39.7641 62.6376 39.5275 61.6519 39.4882 60.6487C39.4087 58.6226 40.1374 56.6478 41.5138 55.159C42.8903 53.6701 44.8019 52.789 46.828 52.7095C48.8541 52.63 50.8288 53.3587 52.3177 54.7351L69.9634 71.0536L106.834 14.6922C107.384 13.8516 108.094 13.1276 108.923 12.5614C109.753 11.9952 110.686 11.598 111.669 11.3925C112.653 11.1869 113.667 11.1771 114.654 11.3634C115.641 11.5498 116.581 11.9287 117.422 12.4786C118.263 13.0285 118.987 13.7386 119.553 14.5683C120.119 15.398 120.516 16.3311 120.722 17.3143C120.927 18.2976 120.937 19.3116 120.751 20.2987C120.564 21.2857 120.185 22.2264 119.636 23.067Z" stroke="white" stroke-width="3" stroke-miterlimit="10"/>
</svg>
