<svg width="136" height="137" viewBox="0 0 136 137" fill="none" xmlns="http://www.w3.org/2000/svg">
<path d="M94.022 5.28759C85.7719 1.87033 76.9294 0.111512 67.9995 0.111572C59.0697 0.111632 50.2272 1.87056 41.9771 5.28794C33.727 8.70531 26.2308 13.7142 19.9164 20.0286C13.6021 26.3431 8.59328 33.8394 5.17602 42.0895C-1.72546 58.7515 -1.72533 77.4726 5.17637 94.1345C12.0781 110.796 25.316 124.034 41.9779 130.936C58.6399 137.837 77.361 137.837 94.0229 130.935C110.685 124.034 123.923 110.796 130.824 94.1336C137.725 77.4717 137.725 58.7505 130.824 42.0887C123.922 25.4268 110.684 12.1891 94.022 5.28759ZM72.312 130.276H67.9986C53.5232 130.265 39.5054 125.202 28.3633 115.962C17.2211 106.721 9.65328 93.8812 6.96515 79.6576H6.65183L7.6578 75.6343L8.12887 78.2629H31.8416C33.3577 78.2628 34.8589 78.5613 36.2596 79.1414C37.6603 79.7215 38.933 80.5718 40.005 81.6438C41.077 82.7158 41.9274 83.9885 42.5075 85.3892C43.0876 86.7899 43.386 88.2912 43.3859 89.8072C43.3863 94.4169 45.2178 98.8376 48.4775 102.097C51.7372 105.356 56.1581 107.187 60.7677 107.187C63.8292 107.188 66.7652 108.404 68.93 110.569C71.0948 112.734 72.3113 115.67 72.312 118.731V130.276ZM124.571 93.7103C120.442 102.831 114.171 110.82 106.292 116.998C98.413 123.175 89.1585 127.358 79.3157 129.191L78.1501 131.522V118.734C78.15 114.125 76.3188 109.704 73.0593 106.445C69.7998 103.185 65.3791 101.354 60.7696 101.354C59.2535 101.354 57.7523 101.055 56.3516 100.475C54.9509 99.8951 53.6783 99.0447 52.6062 97.9727C51.5342 96.9007 50.6839 95.628 50.1038 94.2274C49.5237 92.8267 49.2252 91.3255 49.2253 89.8094C49.2252 87.5269 48.7755 85.2667 47.902 83.158C47.0284 81.0492 45.7481 79.1331 44.134 77.5192C42.52 75.9053 40.6038 74.6251 38.495 73.7516C36.3862 72.8782 34.126 72.4287 31.8435 72.4288H6.01712V68.1145C6.0164 51.6587 12.5407 35.874 24.1596 24.2209C35.7786 12.5679 51.5441 5.99738 67.9998 5.94987H72.3151V17.4942C72.3143 20.5557 71.0978 23.4916 68.933 25.6564C66.7682 27.8212 63.8323 29.0377 60.7708 29.0384C58.4883 29.0384 56.2282 29.488 54.1195 30.3615C52.0108 31.2349 50.0948 32.5152 48.4809 34.1291C46.8669 35.743 45.5867 37.659 44.7132 39.7678C43.8398 41.8765 43.3902 44.1366 43.3902 46.419C43.3902 48.7015 43.8398 50.9616 44.7132 53.0703C45.5867 55.179 46.8669 57.095 48.4809 58.7089C50.0948 60.3229 52.0108 61.6031 54.1195 62.4766C56.2282 63.35 58.4883 63.7996 60.7708 63.7996H75.2338C78.2951 63.8003 81.2308 65.0169 83.3952 67.1818C85.5596 69.3467 86.7756 72.2826 86.7757 75.3439C86.7756 77.6265 87.2252 79.8868 88.0987 81.9957C88.9722 84.1045 90.2525 86.0207 91.8666 87.6348C93.4806 89.2488 95.3968 90.5292 97.5057 91.4027C99.6146 92.2762 101.875 92.7257 104.157 92.7257H125.015L124.571 93.7103ZM130.164 68.6572H130.159C130.1 74.67 129.178 80.6432 127.42 86.3935L127.269 86.8878H104.156C102.64 86.888 101.139 86.5894 99.7383 86.0093C98.3376 85.4292 97.0649 84.5789 95.9929 83.5069C94.9209 82.4349 94.0706 81.1622 93.4904 79.7615C92.9103 78.3608 92.6118 76.8596 92.6119 75.3436C92.6119 73.061 92.1622 70.8009 91.2886 68.6921C90.4151 66.5834 89.1347 64.6673 87.5207 63.0534C85.9066 61.4394 83.9905 60.1592 81.8817 59.2858C79.7729 58.4124 77.5127 57.9629 75.2301 57.963H60.7683C59.2523 57.963 57.7511 57.6644 56.3505 57.0842C54.9499 56.5041 53.6773 55.6537 52.6053 54.5817C51.5333 53.5098 50.6829 52.2371 50.1028 50.8365C49.5226 49.4359 49.224 47.9347 49.224 46.4187C49.224 44.9027 49.5226 43.4015 50.1028 42.0009C50.6829 40.6003 51.5333 39.3276 52.6053 38.2557C53.6773 37.1837 54.9499 36.3333 56.3505 35.7532C57.7511 35.173 59.2523 34.8744 60.7683 34.8744C65.3779 34.8742 69.7985 33.0429 73.058 29.7835C76.3174 26.5241 78.1487 22.1034 78.1489 17.4938V6.826L78.9695 6.97321C93.3168 9.54516 106.304 17.077 115.662 28.2525C125.019 39.428 130.152 53.5364 130.164 68.1124V68.6572Z" fill="#E7E8E8"/>
</svg>
